<svg xmlns="http://www.w3.org/2000/svg" viewBox="0 0 24 24" fill="none" aria-hidden="true">
  <!-- Camera: navigate to camera screen -->
  <path
    d="M8.2 6.5 9.1 4.9A1.6 1.6 0 0 1 10.45 4.2h3.1a1.6 1.6 0 0 1 1.35.7l.9 1.6H18a2.2 2.2 0 0 1 2.2 2.2v9.1A2.2 2.2 0 0 1 18 19.8H6A2.2 2.2 0 0 1 3.8 17.6V8.7A2.2 2.2 0 0 1 6 6.5h2.2Z"
    stroke="#ffffff"
    stroke-width="1.75"
    stroke-linejoin="round"
  />
  <circle
    cx="12"
    cy="12.6"
    r="3.6"
    stroke="#ffffff"
    stroke-width="1.75"
  />
  <circle cx="17.2" cy="9.4" r="0.85" fill="#ffffff" />
</svg>
