<svg xmlns="http://www.w3.org/2000/svg" viewBox="0 0 24 24" fill="none" aria-hidden="true">
  <!-- Pencil: candidate / edit mark -->

    <style>
    .main { 
      stroke: #ffffff; 
      stroke-width: 1.75;
      stroke-linecap: round;
      stroke-linejoin: round;
    }
    .stop{
      stroke: #ffffff;
      stroke-width: 1.75;
      stroke-linecap: round;
      stroke-linejoin: round;
    }
  </style>
  <path
    d="M 14.6 4.4 
    a 2.1 2.1 0 0 1 3 0 
    l 2 2 
    a 2.1 2.1 0 0 1 0 3 
    L 9 20 
    a 2 2 0 0 1 -0.9 0.5 
    l -4.1 1 
    a 1.75 1.75 0 0 1 -1.5 -1.5 
    l 1 -4.1 
    a 2 2 0 0 1 0.5 -0.9 
    L 14.6 4.4 Z"
    class="main"
  />
  <path
    d="M 13.3 6.3 L 17.8 10.8"
    class="main"
  />
  <path
    d="M 3 21 L 5 19"
    class="main"
  />

  <path
    d="M 9 20
    l -0 -1
    a 0.4 0.4 0 0 0 -0.4 -0.4
    l -1 -0
    a 0.4 0.4 0 0 1 -0.4 -0.4
    l -0 -1
    a 0.4 0.4 0 0 0 -0.4 -0.4
    l -1 -0
    a 0.4 0.4 0 0 1 -0.4 -0.4
    l -0 -1
    a 0.4 0.4 0 0 0 -0.4 -0.4
    l -1 -0
    "
    class="main"
  />

<g opacity="0.6">
  <circle
    cx="12"
    cy="12"
    r="11"
    class="stop"
  />

  <path
    d="M 5 5 L 19 19"
    class="stop"
  />
  </g>
</svg>
